<?xml version="1.0" encoding="UTF-8" standalone="no"?>
<!DOCTYPE svg PUBLIC "-//W3C//DTD SVG 1.1//EN" "http://www.w3.org/Graphics/SVG/1.1/DTD/svg11.dtd">
<svg width="100%" height="100%" viewBox="0 0 103 132" version="1.1" xmlns="http://www.w3.org/2000/svg" xmlns:xlink="http://www.w3.org/1999/xlink" xml:space="preserve" style="fill-rule:evenodd;clip-rule:evenodd;stroke-linejoin:round;stroke-miterlimit:1.41421;">
    <path d="M18.428,116.505L18.428,132.001L32.992,132.001L32.992,116.505L32.992,104.573L57.786,77.921L57.786,100.545C57.786,104.573 61.04,107.827 65.066,107.827L102.064,107.827L102.064,93.261L72.196,93.261L72.196,69.089C72.196,67.695 71.886,66.301 71.11,65.215C70.802,64.751 46.472,35.001 46.472,35.001L61.348,35.001L73.23,48.767L73.22,48.777L80.466,57.041L91.648,47.405L85.23,40.145C85.222,40.135 85.22,40.125 85.212,40.115L84.706,39.535L84.702,39.531L70.18,22.915C68.476,20.901 65.996,20.127 63.672,20.435C63.364,20.281 40.122,20.281 40.122,20.281C38.416,20.281 36.868,20.901 35.628,21.831L16.722,37.015C15.328,38.411 14.398,40.269 14.398,42.439L14.398,58.089L7.27,58.089L0,58.089L0,72.963L21.526,72.963C23.54,72.963 25.4,72.035 26.794,70.639C28.19,69.399 29.12,67.385 29.12,65.371L29.12,53.905L42.754,72.343L20.75,96.361C19.356,97.911 18.736,99.771 18.736,101.631C18.644,102.001 18.552,110.073 18.492,116.505L18.428,116.505ZM14.565,29C22.572,29 29.065,22.508 29.065,14.5C29.065,6.492 22.572,0 14.565,0C6.559,0 0.065,6.492 0.065,14.5C0.065,22.508 6.559,29 14.565,29Z"/>
</svg>
