<?xml version="1.0" encoding="UTF-8" standalone="no"?>
<!DOCTYPE svg PUBLIC "-//W3C//DTD SVG 1.1//EN" "http://www.w3.org/Graphics/SVG/1.1/DTD/svg11.dtd">
<svg width="100%" height="100%" viewBox="0 0 324 78" version="1.1" xmlns="http://www.w3.org/2000/svg" xmlns:xlink="http://www.w3.org/1999/xlink" xml:space="preserve" style="fill-rule:evenodd;clip-rule:evenodd;stroke-linejoin:round;stroke-miterlimit:1.41421;">
    <path d="M0,1L0,77L15,77L15,69.137L8.473,69.137L8.473,42.588L15,42.588L15,34.955L8.473,34.955L8.473,8.632L15,8.632L15,1L0,1Z"/>
    <path d="M29.854,10.798C29.854,8.615 29.628,8.156 28.499,8.156C27.595,8.156 27.031,8.961 27.256,9.765L27.369,10.11L27.369,32.738L27.256,32.969C27.031,34.003 27.708,34.806 28.837,34.692L31.66,34.692C36.177,34.692 38.209,36.989 37.983,41.699L37.983,67.775C37.983,74.323 34.595,78 28.499,78C22.967,78 19.353,74.439 19.353,69.039L19.353,52.956L27.369,52.956L27.369,67.202C27.369,69.268 27.595,69.614 28.612,69.614C29.741,69.614 29.854,69.268 29.854,67.202L29.854,45.375C29.854,42.964 29.628,42.618 27.369,42.733L25.563,42.733C21.386,42.733 18.789,40.205 19.014,36.3L19.014,10.798C19.014,3.905 22.288,0 28.386,0C34.257,0 37.87,3.905 37.87,10.339L37.87,25.044L29.854,25.044L29.854,10.798Z"/>
    <path d="M53.006,10.339C53.006,8.5 52.657,8.041 51.499,8.041C50.456,8.041 50.11,8.615 50.11,10.109L50.11,67.317C50.11,69.385 50.34,69.844 51.499,69.844C52.541,69.844 52.89,69.385 52.89,67.891L52.89,52.727L60.884,52.727L60.884,68.121C60.884,74.325 57.176,78 51.269,78C45.592,78 42,74.669 42,69.498L42,11.027C42,3.675 45.127,0 51.385,0C57.06,0 61,3.216 61,8.041L61,25.272L53.006,25.272L53.006,10.339Z"/>
    <path d="M73.669,54.212L77.763,54.212L75.374,18.662L73.669,54.212ZM88,77L79.243,77L78.218,62.301L73.327,62.301L72.531,77L64,77L69.004,1L81.289,1L88,77Z"/>
    <path d="M100.457,37.803L100.921,37.803C102.774,37.803 103.121,37.347 103.006,35.182L103.006,10.229C103.006,8.861 102.542,8.521 101.266,8.521L100.457,8.521L100.457,37.803ZM102.077,1C107.986,1 111.113,3.619 110.997,8.292L110.997,37.12C111.113,42.247 107.986,45.666 103.235,45.551L100.457,45.551L100.457,77L92,77L92,1L102.077,1Z"/>
    <path d="M129,1L129,8.633L122.473,8.633L122.473,34.955L129,34.955L129,42.59L122.473,42.59L122.473,69.137L129,69.137L129,77L114,77L114,1L129,1Z"/>
    <path d="M150.669,54.212L154.763,54.212L152.374,18.662L150.669,54.212ZM165,77L156.243,77L155.218,62.301L150.327,62.301L149.531,77L141,77L146.004,1L158.289,1L165,77Z"/>
    <path d="M176.338,37.804C176.686,37.918 177.033,37.918 177.264,37.918C178.423,37.918 178.655,37.577 178.655,35.754L178.655,11.142C178.655,9.091 178.423,8.75 177.033,8.75L176.338,8.75L176.338,37.804ZM177.496,1.003C183.286,0.889 186.875,4.079 186.759,9.206L186.759,34.5C186.875,37.236 185.371,40.426 183.401,41.451C186.066,42.818 187.107,44.983 186.991,48.63L186.991,77L178.539,77L178.539,47.147L178.539,46.806L178.539,46.008C178.539,45.553 177.959,45.324 177.033,45.324L176.338,45.324L176.338,77L168,77L168,1.003L177.496,1.003Z"/>
    <path d="M210,8.975L204.523,8.975L204.523,77L196.477,77L196.477,8.975L191,8.975L191,1L210,1L210,8.975Z"/>
    <rect x="214" y="1" width="8" height="76"/>
    <path d="M236.854,10.798C236.854,8.615 236.628,8.156 235.499,8.156C234.595,8.156 234.031,8.961 234.256,9.765L234.369,10.11L234.369,32.738L234.256,32.969C234.031,34.003 234.708,34.806 235.837,34.692L238.66,34.692C243.177,34.692 245.209,36.989 244.983,41.699L244.983,67.775C244.983,74.323 241.595,78 235.499,78C229.967,78 226.353,74.439 226.353,69.039L226.353,52.956L234.369,52.956L234.369,67.202C234.369,69.268 234.595,69.614 235.612,69.614C236.741,69.614 236.854,69.268 236.854,67.202L236.854,45.375C236.854,42.964 236.628,42.618 234.369,42.733L232.563,42.733C228.386,42.733 225.789,40.205 226.013,36.3L226.013,10.798C226.013,3.905 229.288,0 235.386,0C241.257,0 244.87,3.905 244.87,10.339L244.87,25.044L236.854,25.044L236.854,10.798Z"/>
    <path d="M267,8.975L261.524,8.975L261.524,77L253.477,77L253.477,8.975L248,8.975L248,1L267,1L267,8.975Z"/>
    <path d="M296.756,77L284.361,77L279,1L287.151,1L290.279,48.97L293.071,1L301,1L296.756,77Z"/>
    <path d="M313.337,37.804C313.685,37.918 314.032,37.918 314.264,37.918C315.421,37.918 315.653,37.577 315.653,35.754L315.653,11.142C315.653,9.091 315.421,8.75 314.032,8.75L313.337,8.75L313.337,37.804ZM314.496,1.003C320.286,0.889 323.875,4.079 323.759,9.206L323.759,34.5C323.875,37.236 322.371,40.426 320.401,41.451C323.065,42.818 324.107,44.983 323.991,48.63L323.991,77L315.537,77L315.537,47.147L315.537,46.806L315.537,46.008C315.537,45.553 314.958,45.324 314.032,45.324L313.337,45.324L313.337,77L305,77L305,1.003L314.496,1.003Z"/>
</svg>
